# xmcd
#
# Track frame offsets: 
#        150
#        19232
#        27570
#        40917
#        50042
#        61802
#        67922
#        85447
#        97497
#        113560
#        119655
#        136052
#        146370
#        151767
#        170797
#        187142
#        192180
#
# Disc length: 3034 seconds
#
# Revision: 2
# Processed by: cddbd v1.5.2PL0 Copyright (c) Steve Scherf et al.
# Submitted via: ExactAudioCopyFreeDBPlugin 1.0
#
DISCID=f80bd811
DTITLE=Various Artist - Les Valseuses and Calmos
DYEAR=2001
DGENRE=Jazz
TTITLE0=Grappelli, Stéphane - Ballade (Thème Principal)
TTITLE1=Grappelli, Stéphane - Jeanne
TTITLE2=Grappelli, Stéphane - Rolls
TTITLE3=Grappelli, Stéphane - Jeanne (Version 2)
TTITLE4=Grappelli, Stéphane - Poursuite
TTITLE5=Grappelli, Stéphane - Rolls (Version 2)
TTITLE6=Grappelli, Stéphane - Ballade (Générique De Fin)
TTITLE7=Delerue, Georges - Les Joies Du Maquis
TTITLE8=Delerue, Georges - Débandade
TTITLE9=Delerue, Georges - Calmos
TTITLE10=Delerue, Georges - L'ataque Des Femmes
TTITLE11=Delerue, Georges - Départ Pour Le Maquis
TTITLE12=Delerue, Georges - Débandade (Version 2)
TTITLE13=Delerue, Georges - Calmos Tranquilos
TTITLE14=Delerue, Georges - Les Joies Du Maquis (Version 2)
TTITLE15=Delerue, Georges - L'attaque Des Femmes (Version 2)
TTITLE16=Delerue, Georges - Calmos (Version 2)
EXTD=YEAR: 2001
EXTT0=
EXTT1=
EXTT2=
EXTT3=
EXTT4=
EXTT5=
EXTT6=
EXTT7=
EXTT8=
EXTT9=
EXTT10=
EXTT11=
EXTT12=
EXTT13=
EXTT14=
EXTT15=
EXTT16=
PLAYORDER=
